# xmcd CD database file
#
# Track frame offsets:
#	150
#	19891
#	43528
#	58594
#	79073
#	100220
#	107313
#	128394
#	149048
#	172740
#	177096
#	187479
#	201692
#	219980
#	248026
#	268300
#	271297
#
# Disc length: 3815 seconds
#
# Revision: 0
# Processed by: cddbd v1.5.1PL0 Copyright (c) Steve Scherf et al.
# Submitted via: CDex 1.50beta10
#
DISCID=f80ee511
DTITLE=Brewer Phillips - Well Alright
DYEAR=1999
DGENRE=Blues
TTITLE0=You Don't Have To Go
TTITLE1=Kansas City
TTITLE2=You Can't Sit Down
TTITLE3=Dust My Broom - Version 1
TTITLE4=Mama Talk To Your Daughter
TTITLE5=Lunchbucket Blues
TTITLE6=Blues Before Sunrise
TTITLE7=Wild About You Baby
TTITLE8=Magic Rocker
TTITLE9=Folgers/Canadian Club Promo
TTITLE10=I'm Looking For A Woman
TTITLE11=Dust My Broom - Version 2
TTITLE12=Jumping With Symphony Sid
TTITLE13=Mean Black Spider
TTITLE14=Sweet Home Chicago
TTITLE15=Raoul's Squaw Joke
TTITLE16=Dirty Mother
EXTD=YEAR: 1999
EXTT0=
EXTT1=
EXTT2=
EXTT3=
EXTT4=
EXTT5=
EXTT6=
EXTT7=
EXTT8=
EXTT9=
EXTT10=
EXTT11=
EXTT12=
EXTT13=
EXTT14=
EXTT15=
EXTT16=
PLAYORDER=
